<?xml version="1.0" encoding="UTF-8" standalone="no" ?>
<!DOCTYPE svg PUBLIC "-//W3C//DTD SVG 1.1//EN" "http://www.w3.org/Graphics/SVG/1.1/DTD/svg11.dtd">
<svg xmlns="http://www.w3.org/2000/svg" xmlns:xlink="http://www.w3.org/1999/xlink" version="1.1" width="400" height="400" viewBox="0 0 400 400" xml:space="preserve">
<desc>Created with Fabric.js 3.6.2</desc>
<defs>
</defs>
<g transform="matrix(2.88 0 0 2.88 199.99 199.99)" id="Layer_1-2"  >
<linearGradient id="SVGID_linear-gradient_2" gradientUnits="userSpaceOnUse" gradientTransform="matrix(1 0 0 1 -34.72 -34.72)"  x1="9.7" y1="58.8" x2="59.74" y2="10.65">
<stop offset="0%" style="stop-color:rgb(241,234,96);stop-opacity: 1"/>
<stop offset="24%" style="stop-color:rgb(204,128,73);stop-opacity: 1"/>
<stop offset="39%" style="stop-color:rgb(183,89,103);stop-opacity: 1"/>
<stop offset="49%" style="stop-color:rgb(172,68,118);stop-opacity: 1"/>
<stop offset="100%" style="stop-color:rgb(37,48,244);stop-opacity: 1"/>
</linearGradient>
<circle style="stroke: none; stroke-width: 1; stroke-dasharray: none; stroke-linecap: butt; stroke-dashoffset: 0; stroke-linejoin: miter; stroke-miterlimit: 4; fill: url(#SVGID_linear-gradient_2); fill-rule: nonzero; opacity: 1;"  cx="0" cy="0" r="34.72" />
</g>
<g transform="matrix(2.88 0 0 2.88 200.04 200.07)" id="Layer_1-2"  >
<path style="stroke: none; stroke-width: 1; stroke-dasharray: none; stroke-linecap: butt; stroke-dashoffset: 0; stroke-linejoin: miter; stroke-miterlimit: 4; fill: rgb(255,255,255); fill-rule: nonzero; opacity: 1;"  transform=" translate(-34.74, -34.75)" d="M 34.72 20.37 c 4.68 0 5.23 0 7.08 0.1 a 9.75 9.75 0 0 1 3.25 0.6 a 5.43 5.43 0 0 1 2 1.31 a 5.31 5.31 0 0 1 1.31 2 A 9.62 9.62 0 0 1 49 27.65 c 0.08 1.84 0.1 2.4 0.1 7.07 s 0 5.23 -0.1 7.08 a 9.68 9.68 0 0 1 -0.61 3.25 a 5.81 5.81 0 0 1 -3.32 3.32 A 9.68 9.68 0 0 1 41.8 49 c -1.85 0.08 -2.4 0.1 -7.08 0.1 s -5.23 0 -7.07 -0.1 a 9.62 9.62 0 0 1 -3.25 -0.61 a 5.31 5.31 0 0 1 -2 -1.31 a 5.43 5.43 0 0 1 -1.31 -2 a 9.75 9.75 0 0 1 -0.6 -3.25 c -0.08 -1.85 -0.1 -2.4 -0.1 -7.08 s 0 -5.23 0.1 -7.07 a 9.69 9.69 0 0 1 0.6 -3.25 a 5.77 5.77 0 0 1 3.33 -3.33 a 9.69 9.69 0 0 1 3.25 -0.6 c 1.84 -0.08 2.4 -0.1 7.07 -0.1 m 0 -3.16 c -4.75 0 -5.35 0 -7.22 0.11 a 12.86 12.86 0 0 0 -4.25 0.81 a 9 9 0 0 0 -5.12 5.12 a 12.86 12.86 0 0 0 -0.81 4.25 c -0.09 1.87 -0.11 2.47 -0.11 7.22 s 0 5.36 0.11 7.22 a 12.75 12.75 0 0 0 0.81 4.25 a 8.94 8.94 0 0 0 5.12 5.13 a 13.12 13.12 0 0 0 4.25 0.81 c 1.87 0.08 2.47 0.1 7.22 0.1 s 5.36 0 7.22 -0.1 a 13 13 0 0 0 4.25 -0.81 a 8.87 8.87 0 0 0 5.12 -5.13 a 12.72 12.72 0 0 0 0.82 -4.25 c 0.08 -1.86 0.1 -2.46 0.1 -7.22 s 0 -5.35 -0.1 -7.22 a 12.83 12.83 0 0 0 -0.82 -4.25 a 8.56 8.56 0 0 0 -2 -3.1 a 8.68 8.68 0 0 0 -3.11 -2 a 12.75 12.75 0 0 0 -4.25 -0.81 c -1.86 -0.09 -2.46 -0.11 -7.22 -0.11" stroke-linecap="round" />
</g>
<g transform="matrix(2.88 0 0 2.88 199.99 200.01)" id="Layer_1-2"  >
<path style="stroke: none; stroke-width: 1; stroke-dasharray: none; stroke-linecap: butt; stroke-dashoffset: 0; stroke-linejoin: miter; stroke-miterlimit: 4; fill: rgb(255,255,255); fill-rule: nonzero; opacity: 1;"  transform=" translate(-34.72, -34.73)" d="M 34.72 25.73 a 9 9 0 1 0 9 9 a 9 9 0 0 0 -9 -9 m 0 14.83 a 5.84 5.84 0 1 1 5.84 -5.84 a 5.83 5.83 0 0 1 -5.84 5.84" stroke-linecap="round" />
</g>
<g transform="matrix(2.88 0 0 2.88 226.91 173.09)" id="Layer_1-2"  >
<path style="stroke: none; stroke-width: 1; stroke-dasharray: none; stroke-linecap: butt; stroke-dashoffset: 0; stroke-linejoin: miter; stroke-miterlimit: 4; fill: rgb(255,255,255); fill-rule: nonzero; opacity: 1;"  transform=" translate(-44.07, -25.38)" d="M 46.17 25.38 a 2.1 2.1 0 1 1 -2.1 -2.1 a 2.1 2.1 0 0 1 2.1 2.1" stroke-linecap="round" />
</g>
</svg>